Coordinates
version=1
nRows=21
nColumns=12
inDegrees=yes

Units are S.I. units (second, meters, Newtons, ...)
Angles are in degrees

endheader
time	SC_y	SC_z	SC_x	AC_y	AC_z	AC_x	GH_y	GH_z	GH_yy	EL_x	PS_y
       0.0              -17.08          9.735          4.214          35.36         -10.65         -10.65         -56.42          43.94          -81.5          23.26          133.4
   0.01567              -17.08          9.737          4.223          35.36         -10.65         -10.65         -56.43          43.94         -81.49          23.27          133.4
   0.03135              -17.09          9.739          4.232          35.37         -10.65         -10.65         -56.43          43.94         -81.47          23.28          133.3
   0.04702              -17.09          9.741          4.242          35.37         -10.65         -10.66         -56.44          43.95         -81.46          23.29          133.3
    0.0627               -17.1          9.743          4.253          35.38         -10.65         -10.66         -56.45          43.95         -81.44           23.3          133.3
   0.07837               -17.1          9.746          4.264          35.38         -10.65         -10.66         -56.45          43.95         -81.42          23.31          133.3
   0.09405              -17.11          9.749          4.277          35.39         -10.65         -10.66         -56.46          43.96          -81.4          23.33          133.3
    0.1097              -17.12          9.752           4.29           35.4         -10.65         -10.66         -56.47          43.96         -81.37          23.34          133.2
    0.1254              -17.13          9.755          4.304           35.4         -10.65         -10.66         -56.48          43.97         -81.35          23.35          133.2
    0.1411              -17.14          9.758          4.319          35.41         -10.65         -10.66         -56.48          43.97         -81.33          23.37          133.2
    0.1567              -17.15          9.762          4.335          35.42         -10.65         -10.66         -56.49          43.98          -81.3          23.38          133.2
    0.1724              -17.16          9.766          4.352          35.42         -10.65         -10.66          -56.5          43.98         -81.27           23.4          133.1
    0.1881              -17.17           9.77          4.371          35.43         -10.66         -10.67         -56.51          43.99         -81.24          23.42          133.1
    0.2038              -17.18          9.775          4.391          35.44         -10.66         -10.67         -56.53          43.99          -81.2          23.44          133.0
    0.2194              -17.19           9.78          4.413          35.45         -10.66         -10.67         -56.54           44.0         -81.17          23.46          133.0
    0.2351               -17.2          9.785          4.436          35.46         -10.66         -10.67         -56.55          44.01         -81.13          23.49          133.0
    0.2508              -17.22          9.791          4.462          35.47         -10.66         -10.67         -56.57          44.01         -81.08          23.51          132.9
    0.2665              -17.23          9.797           4.49          35.49         -10.66         -10.68         -56.58          44.02         -81.03          23.54          132.9
    0.2821              -17.25          9.804          4.521           35.5         -10.66         -10.68          -56.6          44.03         -80.98          23.57          132.8
    0.2978              -17.27          9.812          4.554          35.52         -10.66         -10.68         -56.62          44.04         -80.93          23.61          132.7
    0.3135              -17.29           9.82          4.591          35.53         -10.66         -10.68         -56.64          44.05         -80.86          23.64          132.7
